<?xml version="1.0" standalone="no"?><!DOCTYPE svg PUBLIC "-//W3C//DTD SVG 1.1//EN" "http://www.w3.org/Graphics/SVG/1.1/DTD/svg11.dtd"><svg t="1668677584728" class="icon" viewBox="0 0 1024 1024" version="1.1" xmlns="http://www.w3.org/2000/svg" p-id="6598" xmlns:xlink="http://www.w3.org/1999/xlink" width="200" height="200"><path d="M511.889995 128.745223c-201.858404 0-365.490182 163.640987-365.490182 365.490182 0 201.848171 163.631778 365.489158 365.490182 365.489158s365.489158-163.640987 365.489158-365.489158C877.379153 292.38621 713.748399 128.745223 511.889995 128.745223zM632.031259 527.981996c-19.809161 27.473725-47.043433 60.480466-70.813812 79.976496-17.23043 14.116509-49.076742 35.996842-74.16821 31.989575-64.639183-10.314926-50.879807-161.123654-94.415346-195.138352-19.907399-5.497201-29.508058 23.574928-40.448224 6.388501-17.203824-13.634532 16.570397-37.459147 33.710776-51.182706 21.183462-16.954137 46.168506-41.117466 74.16821-30.614252 54.537104 20.459984 15.445784 144.411017 67.440995 171.376159 26.866904-20.531616 56.982806-54.474682 50.575886-95.967702-5.095042-13.848403-29.713742-9.449209-43.830251-6.39771-0.731664-63.291488 130.74988-111.806435 141.610228-25.582655C681.758824 465.600227 632.031259 527.981996 632.031259 527.981996z" p-id="6599"></path></svg>